<?xml version="1.0" encoding="UTF-8"?><svg id="a" xmlns="http://www.w3.org/2000/svg" xmlns:xlink="http://www.w3.org/1999/xlink" viewBox="0 0 1920 1000"><defs><style>.f{fill:#fff;}.g{fill:url(#d);opacity:.25;}.h,.i,.j{fill:#fea7af;}.i{opacity:.29;}.i,.j{isolation:isolate;}.k{clip-path:url(#b);}.j{opacity:.33;}.l{fill:url(#e);}.m{fill:none;}.n{fill:url(#c);opacity:.35;}</style><clipPath id="b"><rect class="m" x="-1.92" y="-.9" width="1923.85" height="1001.8"/></clipPath><linearGradient id="c" x1="2664.6" y1="932.37" x2="152.5" y2="-299.44" gradientTransform="matrix(1, 0, 0, 1, 0, 0)" gradientUnits="userSpaceOnUse"><stop offset=".07" stop-color="#db146d"/><stop offset=".37" stop-color="#8e529d"/><stop offset=".62" stop-color="#5381c2"/><stop offset=".8" stop-color="#2f9ed9"/><stop offset=".9" stop-color="#22aae2"/></linearGradient><linearGradient id="d" x1="2737.96" y1="957.37" x2="194.91" y2="-289.6" xlink:href="#c"/><linearGradient id="e" x1="2753.26" y1="879.57" x2="241.17" y2="-352.24" xlink:href="#c"/></defs><polygon class="i" points="837.6 129.7 839 127.2 841.5 125.8 839 124.4 837.6 121.9 836.2 124.4 833.7 125.8 836.2 127.2 837.6 129.7"/><polygon class="i" points="870.2 13.7 871.6 11.1 874.2 9.8 871.6 8.4 870.2 5.8 868.8 8.4 866.3 9.8 868.8 11.1 870.2 13.7"/><polygon class="f" points="1200.1 101.1 1206.4 97.6 1200.1 94.2 1196.6 87.8 1193.2 94.2 1186.9 97.6 1193.2 101.1 1196.6 107.4 1200.1 101.1"/><polygon class="j" points="1048.2 95.1 1049.8 92.2 1052.7 90.6 1049.8 89.1 1048.2 86.2 1046.7 89.1 1043.8 90.6 1046.7 92.2 1048.2 95.1"/><polygon class="j" points="1121.8 7.1 1123.4 4.2 1126.2 2.6 1123.4 1.1 1121.8 -1.8 1120.2 1.1 1117.3 2.6 1120.2 4.2 1121.8 7.1"/><polygon class="h" points="1474.38 132.17 1477.03 130.7 1474.38 129.23 1473 126.58 1471.53 129.23 1468.88 130.7 1471.53 132.17 1473 134.82 1474.38 132.17"/><g class="k"><path class="n" d="M756.88,610.64c45.64,43.72,114.32,52.33,169.66,21.8,.31-.17,.61-.34,.92-.5,23.84-13.03,49.3-23.44,75.98-29.2,22.33-4.85,45.36-6.37,68.1-4.24,21.01,1.92,41.63,6.87,61.43,14.04,19.3,6.87,37.79,15.76,55.77,25.66,17.28,9.6,34.15,20,50.92,30.51,85.68,53.65,177.72,19.6,282.49-8.39,104.77-27.99,264.81,15.36,323.41,92.75,58.7,77.39,140.54,50.52,294.41,69.51,153.98,19.1,44.05-265.11,44.05-265.11l96.59-407.06S1742.5-146.52,1733-144.91,282.26-23.57,282.26-23.57c47.43,37.37,93.09,77.82,135.21,121.08,18.78,19.29,37.07,39.35,52.77,61.27,55.2,77.07,24.03,183.9,85.89,259.6,15.93,19.49,36.69,34.92,59.76,44.94,23.68,10.29,51.57,8.61,71.11,27.07,37.37,35.29,48.2,99.47,69.88,120.24Z"/><path class="g" d="M808.9,646.56c45.78,46.21,114.68,55.3,170.19,23.04,.31-.18,.61-.36,.92-.53,23.92-13.77,49.46-24.77,76.21-30.86,22.4-5.12,45.51-6.73,68.31-4.48,21.08,2.03,41.76,7.26,61.62,14.84,19.36,7.26,37.9,16.66,55.94,27.12,17.33,10.14,34.26,21.14,51.08,32.24,85.94,56.69,178.27,20.71,283.37-8.86,105.1-29.57,265.63,16.23,324.42,98.01,58.88,81.78,140.98,53.38,295.33,73.46,154.46,20.18,44.19-280.16,44.19-280.16l96.89-430.17S1797.59-153.58,1788.06-151.88c-9.53,1.71-1455.26,128.23-1455.26,128.23,47.58,39.49,93.38,82.23,135.63,127.95,18.84,20.39,37.19,41.59,52.94,64.75,55.38,81.45,24.11,194.34,86.16,274.34,15.98,20.6,36.8,36.91,59.95,47.5,23.75,10.87,51.74,9.1,71.33,28.6,37.48,37.3,48.35,105.12,70.1,127.07Z"/><path class="l" d="M845.55,557.84c45.64,43.72,114.32,52.33,169.66,21.8,.31-.17,.61-.34,.92-.5,23.84-13.03,49.3-23.44,75.98-29.2,22.33-4.85,45.36-6.37,68.1-4.24,21.01,1.92,41.63,6.87,61.43,14.04,19.3,6.87,37.79,15.76,55.77,25.66,17.28,9.6,34.15,20,50.92,30.51,85.68,53.65,177.72,19.6,282.49-8.39,104.77-27.99,264.81,15.36,323.41,92.75,58.7,77.39,140.54,50.52,294.41,69.51,153.98,19.1,44.05-265.11,44.05-265.11l96.59-407.06S1831.17-199.32,1821.67-197.71,370.93-76.37,370.93-76.37C418.36-39,464.02,1.45,506.14,44.71c18.78,19.29,37.07,39.35,52.77,61.27,55.2,77.07,24.03,183.9,85.89,259.6,15.93,19.49,36.69,34.92,59.76,44.94,23.68,10.29,51.57,8.61,71.11,27.07,37.37,35.29,48.2,99.47,69.88,120.24Z"/></g></svg>