<?xml version="1.0" encoding="UTF-8"?><svg id="a" xmlns="http://www.w3.org/2000/svg" xmlns:xlink="http://www.w3.org/1999/xlink" viewBox="0 0 1064.5 675.68"><defs><style>.c{fill:url(#b);}</style><linearGradient id="b" x1="-20.94" y1="-50.34" x2="1230.26" y2="480.86" gradientTransform="matrix(1, 0, 0, 1, 0, 0)" gradientUnits="userSpaceOnUse"><stop offset=".19" stop-color="#22aae2"/><stop offset=".29" stop-color="#27a4de"/><stop offset=".43" stop-color="#3896d2"/><stop offset=".59" stop-color="#547ec0"/><stop offset=".76" stop-color="#7a5da6"/><stop offset=".95" stop-color="#ab3385"/><stop offset="1" stop-color="#bb267b"/></linearGradient></defs><path class="c" d="M1064.5,0V665.25s-15.07,6.72-39.36,4.79h-.01c-18.63-1.48-42.7-8.06-69.55-26.68-28.14-19.53-23.88-78.93-219.9-37.18-196.03,41.75-203.3-19.94-161.65-46.98,41.66-27.05,124.27-86.69-124.83-80.4-115.38,2.94-166.26-25.65-82.85-63.98,83.42-38.32,330.68,28.44,111.8-51.72-90.68-33.25-198.67-35.13-204.09-87.34-4.16-39.87,41.76-64.3,76.14-104.59,31.73-37.17,68.19-110.79-167.06-57.43C-52.12,167.09,23.45,0,23.45,0H1064.5Z"/></svg>